grf
version=1
nRows=12
nColumns=37
inDegrees=no
endheader
time	ground_force_1_vx	ground_force_1_vy	ground_force_1_vz	ground_force_1_px	ground_force_1_py	ground_force_1_pz	ground_moment_1_mx	ground_moment_1_my	ground_moment_1_mz	ground_force_2_vx	ground_force_2_vy	ground_force_2_vz	ground_force_2_px	ground_force_2_py	ground_force_2_pz	ground_moment_2_mx	ground_moment_2_my	ground_moment_2_mz	ground_force_3_vx	ground_force_3_vy	ground_force_3_vz	ground_force_3_px	ground_force_3_py	ground_force_3_pz	ground_moment_3_mx	ground_moment_3_my	ground_moment_3_mz	ground_force_4_vx	ground_force_4_vy	ground_force_4_vz	ground_force_4_px	ground_force_4_py	ground_force_4_pz	ground_moment_4_mx	ground_moment_4_my	ground_moment_4_mz
      1.82000000	      0.00000000	     -0.00000000	      0.00000000	      0.00000000	      0.00000000	      0.00000000	      0.00000000	      0.00000000	      0.00000000	     -2.89624143	     -4.68244362	   -485.48266602	   -319.63214564	  -1023.50256445	      0.00000000	      0.00000000	      0.00000000	   2652.50066571	     -1.06889156	     -8.63235941	   -147.50798035	   -287.42355167	   -807.51143159	      0.00000000	     -0.00000000	     -0.00000000	  -2463.09003455	      0.00000000	     -0.00000000	      0.00000000	      0.00000000	      0.00000000	      0.00000000	      0.00000000	      0.00000000	      0.00000000
      1.83000000	      0.00000000	     -0.00000000	      0.00000000	      0.00000000	      0.00000000	      0.00000000	      0.00000000	      0.00000000	      0.00000000	     -2.05184174	     -5.29999304	   -477.93008423	   -319.27789777	  -1022.79054625	      0.00000000	      0.00000000	      0.00000000	   2865.81309847	     -1.30731077	    -10.28713787	   -154.93141174	   -288.19754987	   -805.35906367	      0.00000000	      0.00000000	     -0.00000000	  -2301.21422168	      0.00000000	     -0.00000000	      0.00000000	      0.00000000	      0.00000000	      0.00000000	      0.00000000	      0.00000000	      0.00000000
      1.84000000	      0.00000000	     -0.00000000	      0.00000000	      0.00000000	      0.00000000	      0.00000000	      0.00000000	      0.00000000	      0.00000000	     -2.50783753	     -5.87555027	   -470.78887939	   -318.82239245	  -1022.75746016	      0.00000000	      0.00000000	      0.00000000	   2578.96716245	     -1.08279403	    -11.78834715	   -161.58531189	   -289.00922088	   -805.31300936	      0.00000000	     -0.00000000	     -0.00000000	  -2440.16969875	      0.00000000	     -0.00000000	      0.00000000	      0.00000000	      0.00000000	      0.00000000	      0.00000000	      0.00000000	      0.00000000
      1.85000000	      0.00000000	     -0.00000000	      0.00000000	      0.00000000	      0.00000000	      0.00000000	      0.00000000	      0.00000000	      0.00000000	     -1.76002705	     -5.59856939	   -464.49758911	   -319.09976738	  -1023.17668252	      0.00000000	      0.00000000	      0.00000000	   2674.76698978	     -0.69176671	    -13.26609510	   -167.57043457	   -288.84326312	   -804.03841620	      0.00000000	      0.00000000	     -0.00000000	  -2421.13661002	      0.00000000	     -0.00000000	      0.00000000	      0.00000000	      0.00000000	      0.00000000	      0.00000000	      0.00000000	      0.00000000
      1.86000000	      0.00000000	     -0.00000000	      0.00000000	      0.00000000	      0.00000000	      0.00000000	      0.00000000	      0.00000000	      0.00000000	     -1.80852461	     -5.68005323	   -457.91369629	   -319.21570131	  -1022.29224902	      0.00000000	      0.00000000	      0.00000000	   2609.81865492	     -0.85718435	    -14.28448956	   -172.89904785	   -287.41497529	   -800.80439735	      0.00000000	      0.00000000	     -0.00000000	  -2444.63492665	      0.00000000	     -0.00000000	      0.00000000	      0.00000000	      0.00000000	      0.00000000	      0.00000000	      0.00000000	      0.00000000
      1.87000000	      0.00000000	     -0.00000000	      0.00000000	      0.00000000	      0.00000000	      0.00000000	      0.00000000	      0.00000000	      0.00000000	     -1.74379587	     -6.49051762	   -449.27807617	   -318.59218158	  -1020.51894940	      0.00000000	      0.00000000	      0.00000000	   2506.77756959	     -0.97581995	    -15.02118865	   -176.01472473	   -289.34795329	   -801.91815686	      0.00000000	      0.00000000	     -0.00000000	  -2416.13220282	      0.00000000	     -0.00000000	      0.00000000	      0.00000000	      0.00000000	      0.00000000	      0.00000000	      0.00000000	      0.00000000
      1.88000000	      0.00000000	     -0.00000000	      0.00000000	      0.00000000	      0.00000000	      0.00000000	      0.00000000	      0.00000000	      0.00000000	     -1.94700813	     -6.49762106	   -443.43505859	   -317.53491750	  -1021.07591435	      0.00000000	      0.00000000	      0.00000000	   2413.08219701	     -0.35484454	    -15.97920415	   -177.58523560	   -288.89582746	   -806.24614089	      0.00000000	      0.00000000	     -0.00000000	  -2339.63165555	      0.00000000	     -0.00000000	      0.00000000	      0.00000000	      0.00000000	      0.00000000	      0.00000000	      0.00000000	      0.00000000
      1.89000000	      0.00000000	     -0.00000000	      0.00000000	      0.00000000	      0.00000000	      0.00000000	      0.00000000	      0.00000000	      0.00000000	     -2.10112929	     -6.79262304	   -437.68753052	   -316.42866336	  -1021.50316448	      0.00000000	      0.00000000	     -0.00000000	   2352.26197211	     -0.38793767	    -17.08650776	   -180.89009094	   -289.57377730	   -804.63553873	      0.00000000	     -0.00000000	     -0.00000000	  -2380.27553657	      0.00000000	     -0.00000000	      0.00000000	      0.00000000	      0.00000000	      0.00000000	      0.00000000	      0.00000000	      0.00000000
      1.90000000	      0.00000000	     -0.00000000	      0.00000000	      0.00000000	      0.00000000	      0.00000000	      0.00000000	      0.00000000	      0.00000000	     -2.99849272	     -6.87791300	   -430.38909912	   -316.12971434	  -1021.02191961	      0.00000000	      0.00000000	      0.00000000	   2036.64291172	      0.12904959	    -17.81690217	   -184.16166687	   -290.31712364	   -803.22658692	      0.00000000	      0.00000000	     -0.00000000	  -2345.01605776	      0.00000000	     -0.00000000	      0.00000000	      0.00000000	      0.00000000	      0.00000000	      0.00000000	      0.00000000	      0.00000000
      1.91000000	      0.00000000	     -0.00000000	      0.00000000	      0.00000000	      0.00000000	      0.00000000	      0.00000000	      0.00000000	      0.00000000	     -2.91908789	     -6.72423744	   -424.62069702	   -314.99385388	  -1020.60641789	      0.00000000	      0.00000000	      0.00000000	   1920.79333953	      0.21759348	    -19.17413332	   -186.73350525	   -291.49671295	   -803.65887331	      0.00000000	      0.00000000	     -0.00000000	  -2324.21002318	      0.00000000	     -0.00000000	      0.00000000	      0.00000000	      0.00000000	      0.00000000	      0.00000000	      0.00000000	      0.00000000
      1.92000000	      0.00000000	     -0.00000000	      0.00000000	      0.00000000	      0.00000000	      0.00000000	      0.00000000	      0.00000000	      0.00000000	     -2.42292476	     -6.21067190	   -419.06927490	   -315.14025206	  -1019.14809429	      0.00000000	      0.00000000	      0.00000000	   1765.51285535	      0.78951060	    -20.49063117	   -190.15663147	   -290.28542477	   -801.97604085	      0.00000000	      0.00000000	     -0.00000000	  -2288.98899776	      0.00000000	     -0.00000000	      0.00000000	      0.00000000	      0.00000000	      0.00000000	      0.00000000	      0.00000000	      0.00000000
      1.93000000	      0.00000000	     -0.00000000	      0.00000000	      0.00000000	      0.00000000	      0.00000000	      0.00000000	      0.00000000	      0.00000000	     -2.28047228	     -6.21941662	   -418.56259155	   -314.87548437	  -1021.46707223	      0.00000000	      0.00000000	      0.00000000	   1828.95656996	      1.30614677	    -21.43776333	   -192.88787842	   -291.58194222	   -799.11343675	      0.00000000	      0.00000000	     -0.00000000	  -2114.14258426	      0.00000000	     -0.00000000	      0.00000000	      0.00000000	      0.00000000	      0.00000000	      0.00000000	      0.00000000	      0.00000000
